<svg xmlns="http://www.w3.org/2000/svg" width="1200" height="280" viewBox="0 0 1200 280" role="img" aria-label="Văn Đình Nam Design Verification Engineer">
  <defs>
    <linearGradient id="background" x1="0" y1="0" x2="1" y2="1">
      <stop offset="0%" stop-color="#071426"/>
      <stop offset="50%" stop-color="#102A43"/>
      <stop offset="100%" stop-color="#0B3B3C"/>
    </linearGradient>
    <linearGradient id="accent" x1="0" y1="0" x2="1" y2="0">
      <stop offset="0%" stop-color="#38BDF8"/>
      <stop offset="35%" stop-color="#A78BFA"/>
      <stop offset="70%" stop-color="#34D399"/>
      <stop offset="100%" stop-color="#FB923C"/>
    </linearGradient>
    <filter id="glow">
      <feGaussianBlur stdDeviation="4" result="blur"/>
      <feMerge><feMergeNode in="blur"/><feMergeNode in="SourceGraphic"/></feMerge>
    </filter>
  </defs>
  <rect width="1200" height="280" rx="18" fill="url(#background)"/>
  <g opacity="0.16" stroke="#7DD3FC" stroke-width="1">
    <path d="M0 48H1200M0 96H1200M0 144H1200M0 192H1200M0 240H1200"/>
    <path d="M80 0V280M160 0V280M240 0V280M320 0V280M400 0V280M480 0V280M560 0V280M640 0V280M720 0V280M800 0V280M880 0V280M960 0V280M1040 0V280M1120 0V280"/>
  </g>
  <path d="M55 212H160L195 182H270L305 212H390L430 148H500L540 212H630L670 178H755L795 212H900L940 138H1010L1050 212H1145" fill="none" stroke="url(#accent)" stroke-width="5" filter="url(#glow)"/>
  <g fill="#E0F2FE" font-family="Segoe UI, Arial, sans-serif">
    <text x="58" y="80" font-size="38" font-weight="700">VĂN ĐÌNH NAM</text>
    <text x="60" y="125" font-size="25" fill="#BAE6FD">DESIGN VERIFICATION ENGINEER</text>
    <text x="60" y="165" font-size="17" fill="#D1FAE5">SystemVerilog • UVM • SVA • APB4 • AXI4 • RISC-V • FPGA</text>
  </g>
  <g font-family="Consolas, monospace" font-size="15" fill="#FDE68A">
    <text x="865" y="58">assert(property);</text>
    <text x="865" y="85">randomize();</text>
    <text x="865" y="112">coverage.sample();</text>
  </g>
  <g fill="url(#accent)">
    <circle cx="160" cy="212" r="7"/><circle cx="270" cy="212" r="7"/><circle cx="430" cy="148" r="7"/>
    <circle cx="670" cy="178" r="7"/><circle cx="940" cy="138" r="7"/><circle cx="1050" cy="212" r="7"/>
  </g>
</svg>
