<svg xmlns="http://www.w3.org/2000/svg" width="1200" height="310" viewBox="0 0 1200 310" role="img" aria-label="Văn Đình Nam Design Verification Engineer">
  <defs>
    <linearGradient id="bg" x1="0" y1="0" x2="1" y2="1">
      <stop offset="0%" stop-color="#082F49"/>
      <stop offset="48%" stop-color="#0F766E"/>
      <stop offset="100%" stop-color="#1D4ED8"/>
    </linearGradient>
    <linearGradient id="trace" x1="0" y1="0" x2="1" y2="0">
      <stop offset="0%" stop-color="#22D3EE"/>
      <stop offset="47%" stop-color="#A7F3D0"/>
      <stop offset="100%" stop-color="#FACC15"/>
    </linearGradient>
    <filter id="glow"><feGaussianBlur stdDeviation="4" result="b"/><feMerge><feMergeNode in="b"/><feMergeNode in="SourceGraphic"/></feMerge></filter>
  </defs>
  <rect width="1200" height="310" rx="22" fill="url(#bg)"/>
  <circle cx="72" cy="60" r="165" fill="#2DD4BF" opacity=".16"/>
  <circle cx="1070" cy="275" r="170" fill="#A855F7" opacity=".28"/>
  <g font-family="Segoe UI, Arial, sans-serif">
    <text x="335" y="72" fill="#99F6E4" font-size="16" font-family="Consolas, monospace">// spec -&gt; stimulus -&gt; monitor -&gt; coverage -&gt; proof</text>
    <text x="335" y="142" fill="#FFFFFF" font-size="59" font-weight="800">Văn Đình Nam</text>
    <text x="337" y="185" fill="#DBEAFE" font-size="24" font-weight="600">Design Verification Engineer · SystemVerilog · UVM · SVA</text>
  </g>
  <g font-family="Segoe UI, Arial, sans-serif" font-size="18" font-weight="700">
    <rect x="72" y="76" width="216" height="52" rx="15" fill="#082F49" opacity=".76" stroke="#67E8F9"/>
    <text x="104" y="109" fill="#CFFAFE">Protocol Verification</text>
    <rect x="860" y="84" width="250" height="52" rx="15" fill="#172554" opacity=".76" stroke="#93C5FD"/>
    <text x="904" y="117" fill="#DBEAFE">RISC-V + AES FPGA</text>
    <rect x="84" y="218" width="190" height="49" rx="15" fill="#0F172A" opacity=".72" stroke="#5EEAD4"/>
    <text x="123" y="250" fill="#CCFBF1">APB4 / AXI4</text>
    <rect x="885" y="218" width="206" height="49" rx="15" fill="#1E1B4B" opacity=".75" stroke="#C4B5FD"/>
    <text x="920" y="250" fill="#EDE9FE">Coverage Closure</text>
  </g>
  <path d="M0 222 C105 194 178 254 284 219 S461 183 566 219 S744 257 844 216 S1035 190 1200 219" fill="none" stroke="url(#trace)" stroke-width="4" stroke-dasharray="18 12" filter="url(#glow)"/>
  <g fill="#E0F2FE" font-family="Segoe UI, Arial, sans-serif" font-size="15" font-weight="700">
    <rect x="350" y="218" width="105" height="32" rx="16" fill="#FFFFFF" opacity=".17"/><text x="376" y="240">UVM</text>
    <rect x="477" y="218" width="105" height="32" rx="16" fill="#FFFFFF" opacity=".17"/><text x="512" y="240">SVA</text>
    <rect x="604" y="218" width="125" height="32" rx="16" fill="#FFFFFF" opacity=".17"/><text x="630" y="240">MMIO</text>
    <rect x="751" y="218" width="105" height="32" rx="16" fill="#FFFFFF" opacity=".17"/><text x="781" y="240">FPGA</text>
  </g>
</svg>
